<?xml version="1.0" standalone="no"?>
<!DOCTYPE svg PUBLIC "-//W3C//DTD SVG 20010904//EN"
 "http://www.w3.org/TR/2001/REC-SVG-20010904/DTD/svg10.dtd">
<svg version="1.0" xmlns="http://www.w3.org/2000/svg"
 width="20" height="20" viewBox="0 0 180.000000 180.000000"
 preserveAspectRatio="xMidYMid meet">

<g transform="translate(0.000000,180.000000) scale(0.100000,-0.100000)"
fill="#d93d76" stroke="none">
<path d="M563 1640 c-140 -63 -150 -331 -17 -479 83 -93 175 -103 243 -26 89
102 75 320 -29 438 -64 73 -133 96 -197 67z"/>
<path d="M1115 1644 c-51 -26 -102 -84 -131 -148 -25 -54 -29 -73 -29 -161 0
-114 16 -158 79 -213 49 -43 94 -50 151 -22 88 43 152 151 162 275 17 194
-105 335 -232 269z"/>
<path d="M1455 1176 c-95 -44 -162 -150 -172 -275 -4 -54 -2 -81 11 -115 78
-203 326 -97 378 162 20 100 -9 180 -82 230 -42 28 -72 28 -135 -2z"/>
<path d="M225 1152 c-48 -23 -67 -49 -85 -119 -31 -120 51 -295 164 -351 90
-45 144 -34 199 40 26 35 34 131 18 204 -24 107 -132 224 -221 239 -23 3 -48
-1 -75 -13z"/>
<path d="M808 840 c-130 -46 -212 -126 -295 -286 -81 -157 -103 -281 -60 -344
60 -89 126 -96 307 -30 165 60 224 59 382 -3 130 -52 170 -57 228 -27 55 28
74 68 67 144 -6 77 -40 154 -124 280 -79 119 -168 210 -243 250 -73 40 -178
46 -262 16z"/>
</g>
</svg>
