<?xml version="1.0" standalone="no"?>
<!DOCTYPE svg PUBLIC "-//W3C//DTD SVG 20010904//EN"
 "http://www.w3.org/TR/2001/REC-SVG-20010904/DTD/svg10.dtd">
<svg version="1.0" xmlns="http://www.w3.org/2000/svg"
 width="400.000000pt" height="400.000000pt" viewBox="0 0 400.000000 400.000000"
 preserveAspectRatio="xMidYMid meet">
<metadata>
Created by potrace 1.11, written by Peter Selinger 2001-2013
</metadata>
<g transform="translate(0.000000,400.000000) scale(0.100000,-0.100000)"
fill="#000000" stroke="none">
<path d="M2630 3981 c-8 -6 -18 -7 -22 -5 -4 3 -8 1 -8 -3 0 -5 -10 -9 -22
-10 -11 -1 -24 -6 -27 -10 -3 -4 -13 -9 -21 -11 -8 -2 -16 -8 -18 -13 -2 -5
-10 -9 -18 -9 -8 0 -14 -5 -14 -11 0 -5 -4 -7 -10 -4 -5 3 -10 1 -10 -6 0 -7
-3 -10 -6 -6 -3 3 -23 -12 -44 -33 -21 -21 -41 -36 -44 -33 -3 4 -6 -1 -6 -11
0 -9 -3 -15 -7 -13 -5 3 -14 -1 -21 -9 -7 -8 -9 -14 -5 -14 4 0 0 -5 -9 -11
-10 -5 -18 -15 -18 -21 0 -6 -10 -19 -22 -29 -11 -11 -17 -19 -12 -19 5 0 0
-7 -10 -15 -11 -8 -16 -15 -11 -15 4 0 0 -9 -9 -19 -10 -11 -16 -24 -13 -29 3
-4 -3 -14 -13 -22 -10 -8 -17 -17 -15 -21 3 -3 -2 -21 -11 -39 -9 -17 -17 -42
-18 -56 0 -13 -4 -24 -7 -24 -4 0 -10 -15 -14 -32 -4 -18 -9 -37 -10 -43 -2
-5 -6 -21 -8 -35 -3 -14 -6 -25 -7 -25 -1 0 -3 -18 -4 -40 -1 -22 -4 -45 -7
-50 -10 -18 1 -290 11 -290 3 0 11 -39 13 -62 2 -12 6 -25 10 -29 4 -4 7 -16
7 -26 0 -10 5 -18 10 -18 6 0 10 -7 10 -16 0 -18 41 -97 53 -102 4 -2 7 -10 7
-18 0 -8 5 -14 10 -14 6 0 10 -7 10 -15 0 -8 8 -15 17 -15 9 0 14 -3 10 -6 -7
-7 38 -54 52 -54 6 0 14 -6 18 -13 11 -18 83 -58 93 -52 5 3 10 1 12 -5 1 -5
15 -11 31 -12 15 -1 27 -5 27 -8 0 -8 63 -7 75 2 6 4 17 3 25 -2 8 -5 25 -3
41 6 16 8 33 14 39 14 6 0 18 7 27 16 9 8 22 13 29 10 8 -3 14 -1 14 5 0 5 10
14 23 20 36 16 73 39 63 39 -5 0 3 9 16 20 35 27 98 91 98 98 0 4 11 20 25 36
13 16 22 33 19 37 -3 5 -1 9 3 9 10 0 44 60 42 74 0 5 4 12 11 16 6 4 12 13
13 21 2 8 6 20 10 27 5 6 5 17 1 24 -4 6 -3 8 3 5 6 -4 13 0 17 8 3 8 0 15 -7
15 -8 0 -7 3 2 9 8 5 16 15 17 23 2 7 6 24 9 38 4 14 8 34 9 45 2 11 5 22 6
25 1 3 1 15 0 28 -1 12 2 22 7 22 5 0 8 18 6 40 -1 29 1 39 10 34 9 -5 9 -4 0
6 -8 9 -9 19 -3 31 6 11 6 20 1 23 -10 7 -9 25 2 44 5 6 4 12 0 12 -5 0 -8 15
-8 33 0 17 -3 40 -7 49 -5 10 -3 18 5 21 6 3 7 6 1 6 -5 1 -9 15 -8 31 1 17
-1 30 -4 30 -4 0 -8 16 -9 36 -1 20 -7 42 -14 50 -6 8 -8 14 -4 14 4 0 2 7 -5
15 -6 8 -9 19 -5 25 3 5 2 10 -3 10 -4 0 -14 16 -22 35 -8 19 -17 35 -22 35
-4 0 -7 4 -6 8 7 23 -142 179 -156 165 -3 -4 -6 -2 -6 4 0 6 -21 18 -47 28
-27 10 -52 22 -57 26 -13 12 -137 11 -156 0z"/>
<path d="M1209 3969 c-7 -4 -17 -5 -21 -2 -5 2 -20 -3 -33 -11 -14 -9 -25 -14
-25 -10 0 11 -91 -47 -125 -80 -18 -17 -46 -50 -62 -73 -17 -23 -33 -40 -36
-37 -3 3 -4 -2 -3 -13 2 -10 0 -20 -3 -23 -11 -8 -51 -97 -55 -123 -3 -12 -5
-22 -6 -22 -4 0 -10 -46 -13 -92 -1 -29 -4 -53 -7 -53 -3 0 -5 -22 -5 -50 0
-27 4 -50 9 -50 6 0 5 -5 -1 -11 -8 -8 -9 -19 -2 -37 7 -18 6 -27 -2 -32 -6
-4 -7 -10 -2 -13 5 -3 10 -25 12 -48 1 -24 7 -49 13 -56 6 -8 8 -16 5 -19 -5
-5 15 -86 30 -124 4 -8 7 -18 8 -22 2 -5 4 -11 5 -15 1 -5 2 -11 1 -15 0 -5 4
-8 9 -8 6 0 10 -9 10 -19 0 -11 6 -26 13 -33 8 -7 12 -19 9 -27 -3 -8 0 -11 7
-7 7 5 11 -1 11 -13 0 -12 5 -21 12 -21 6 0 9 -3 5 -6 -3 -3 -2 -11 3 -18 49
-60 60 -75 60 -86 0 -6 4 -9 9 -6 5 3 11 -4 14 -15 3 -12 10 -18 16 -14 6 3
11 0 11 -7 0 -13 60 -72 60 -60 0 4 4 2 8 -3 14 -21 65 -55 73 -49 5 3 9 0 9
-5 0 -6 7 -11 16 -11 8 0 12 -4 9 -10 -5 -8 15 -13 41 -9 4 0 10 -3 13 -8 3
-4 17 -14 30 -21 19 -11 22 -11 15 0 -6 10 -4 10 9 -1 9 -7 17 -11 17 -7 0 3
11 1 25 -4 14 -5 25 -6 25 -2 0 4 16 7 35 6 19 -1 35 1 35 5 0 4 12 8 26 9 15
1 33 7 40 13 8 6 14 8 14 5 0 -4 7 0 16 8 8 9 22 16 30 16 8 0 14 7 14 15 0 8
3 14 8 13 14 -3 42 14 37 22 -3 5 4 11 15 15 11 4 18 11 15 16 -4 5 0 12 8 15
8 3 23 22 33 42 11 20 23 40 28 44 5 3 11 15 12 25 2 9 8 19 14 21 5 2 8 7 5
12 -3 4 2 24 10 43 8 19 11 37 8 41 -4 3 -1 6 5 6 6 0 9 9 7 20 -2 11 2 20 8
20 7 0 6 4 -3 10 -11 7 -11 10 -2 10 7 0 12 8 11 18 -4 39 2 73 11 67 5 -3 8
0 5 7 -3 7 -7 54 -9 103 -3 50 -7 106 -10 125 -3 19 -7 47 -8 63 -1 15 -6 27
-11 27 -4 0 -6 4 -3 9 5 8 -12 77 -32 131 -3 8 -6 17 -7 20 -1 3 -8 19 -15 35
-7 17 -13 33 -12 38 1 4 -2 7 -8 7 -5 0 -10 9 -10 20 0 11 -4 20 -10 20 -5 0
-10 7 -10 15 0 8 -5 15 -11 15 -5 0 -8 4 -5 9 3 5 -5 20 -19 35 -13 14 -22 26
-20 26 6 0 -25 38 -54 67 -13 13 -20 23 -15 23 5 0 -10 13 -34 28 -23 16 -39
32 -35 35 3 4 -1 7 -10 7 -8 0 -22 6 -29 13 -20 19 -121 70 -113 57 4 -7 -4
-5 -17 4 -14 9 -28 13 -31 9 -4 -3 -7 -2 -7 3 0 5 -12 11 -27 12 -16 1 -40 4
-55 6 -14 2 -32 0 -39 -5z"/>
<path d="M3590 2792 c0 -4 -20 -7 -44 -7 -24 0 -42 -3 -40 -7 3 -5 -2 -9 -10
-9 -20 -2 -25 -3 -59 -17 -16 -7 -33 -12 -38 -12 -5 0 -9 -4 -9 -10 0 -5 -6
-10 -14 -10 -7 0 -19 -7 -26 -15 -7 -9 -15 -13 -18 -10 -3 2 -13 -5 -23 -17
-11 -11 -19 -18 -19 -13 0 8 -110 -104 -140 -141 -8 -11 -21 -32 -29 -46 -8
-15 -22 -36 -31 -46 -9 -9 -15 -23 -12 -30 2 -6 -1 -12 -6 -12 -10 0 -38 -68
-34 -82 1 -5 -2 -8 -8 -8 -5 0 -10 -9 -10 -20 0 -11 -4 -20 -8 -20 -5 0 -9 -6
-9 -12 -1 -12 -16 -84 -29 -138 -4 -14 -7 -40 -8 -57 0 -18 -4 -33 -8 -33 -4
0 -3 -12 2 -26 6 -14 6 -23 1 -20 -12 8 -8 -77 4 -86 6 -5 6 -8 -1 -8 -10 0
-11 -21 -1 -60 2 -8 7 -32 12 -52 4 -21 11 -38 17 -38 5 0 7 -4 4 -9 -8 -12
10 -58 29 -78 8 -8 13 -19 10 -24 -4 -5 -1 -9 6 -9 7 0 10 -3 6 -6 -7 -7 97
-114 111 -114 6 0 12 -4 14 -9 2 -5 10 -11 18 -13 8 -2 18 -7 21 -11 3 -5 15
-10 25 -12 10 -2 19 -4 19 -6 0 -7 65 -10 153 -6 6 0 12 5 12 10 0 5 7 4 15
-3 12 -10 15 -10 15 0 0 8 3 10 7 7 3 -4 12 -2 20 4 7 6 13 8 13 4 0 -4 7 -2
15 5 8 7 15 9 15 4 0 -5 4 -4 8 1 4 6 26 19 50 29 23 11 42 23 42 28 0 5 4 7
9 4 5 -3 12 1 15 10 4 9 9 14 12 11 4 -3 24 13 46 36 22 23 44 41 49 40 5 -2
9 4 9 12 0 8 5 15 12 15 6 0 8 3 5 6 -3 4 5 15 18 26 14 11 25 24 25 29 0 6
11 25 23 42 31 41 99 184 102 212 0 6 6 20 13 31 6 12 9 24 6 27 -3 3 -2 12 2
19 5 7 10 24 12 38 2 13 8 28 14 31 7 4 7 9 -1 13 -7 5 -8 13 -2 24 5 10 9 75
8 145 -2 101 -5 130 -17 137 -13 8 -13 10 0 10 11 0 11 3 2 12 -7 7 -12 22
-12 35 0 13 -4 23 -10 23 -5 0 -10 7 -10 15 0 20 -29 78 -44 87 -6 4 -7 8 -2
8 5 0 -1 9 -14 20 -13 11 -20 20 -17 20 4 0 -1 8 -10 18 -10 11 -21 17 -25 15
-4 -2 -9 5 -12 15 -3 10 -22 24 -41 31 -20 7 -33 16 -31 20 3 4 -7 8 -21 9
-13 1 -30 5 -36 9 -7 4 -21 9 -32 10 -11 1 -32 5 -47 8 -16 2 -28 1 -28 -3z"/>
<path d="M399 2716 c-3 -3 -29 -8 -59 -11 -30 -4 -57 -11 -58 -16 -2 -5 -7 -7
-12 -4 -11 7 -60 -15 -60 -27 0 -5 -4 -6 -10 -3 -6 3 -10 1 -10 -4 0 -6 -5
-11 -11 -11 -7 0 -22 -11 -35 -25 -13 -14 -28 -25 -34 -25 -6 0 -9 -4 -5 -9 3
-6 -2 -14 -11 -19 -9 -5 -15 -11 -14 -13 4 -8 -23 -59 -32 -59 -4 0 -7 -3 -7
-7 4 -19 -15 -93 -23 -93 -5 0 -7 -9 -3 -19 3 -11 2 -22 -3 -25 -10 -6 -9
-229 2 -291 4 -22 11 -44 16 -49 4 -4 6 -15 3 -22 -3 -8 -1 -14 5 -14 5 0 10
-6 9 -12 -1 -38 4 -69 11 -64 5 3 14 -15 20 -40 7 -24 16 -44 22 -44 5 0 10
-8 10 -18 0 -11 9 -29 20 -42 11 -13 20 -29 20 -37 0 -7 5 -13 10 -13 6 0 10
-7 10 -15 0 -8 9 -19 20 -25 11 -6 20 -15 20 -21 0 -5 13 -24 30 -42 16 -18
30 -35 30 -39 0 -5 7 -8 16 -8 8 0 13 -4 9 -9 -3 -5 4 -12 15 -16 11 -3 20
-11 20 -16 0 -6 4 -7 10 -4 6 3 10 -1 10 -10 0 -9 4 -14 9 -11 5 3 12 -1 15
-10 3 -8 10 -13 15 -9 5 3 12 1 16 -5 4 -6 11 -7 17 -4 6 4 8 2 5 -3 -6 -10 7
-20 31 -24 4 -1 24 -10 44 -20 21 -10 44 -19 53 -19 8 0 15 -4 15 -9 0 -5 8
-8 18 -6 9 1 27 -4 39 -11 13 -8 23 -11 23 -6 0 4 23 7 50 7 28 0 50 3 50 8 0
5 7 7 15 3 8 -3 15 -1 15 4 0 4 13 11 29 15 16 3 32 13 35 22 4 8 13 13 21 10
8 -4 16 2 20 14 4 10 11 17 16 14 5 -4 9 -2 9 3 0 4 14 24 30 42 16 18 30 40
30 47 0 8 5 11 10 8 6 -3 10 0 10 8 0 8 9 34 19 57 11 24 17 49 14 57 -3 7 0
13 5 13 6 0 9 9 7 20 -2 11 -1 20 3 20 4 0 7 29 7 65 0 37 4 65 10 65 7 0 6 3
0 8 -6 4 -10 31 -10 60 1 28 -2 52 -6 52 -3 0 -6 8 -5 18 1 33 -25 142 -35
142 -6 0 -8 4 -5 8 7 11 -32 115 -46 123 -6 4 -8 11 -4 17 3 5 -1 13 -10 16
-8 3 -12 10 -9 16 3 5 1 10 -4 10 -6 0 -11 7 -11 15 0 8 -5 15 -11 15 -5 0 -7
5 -4 10 3 6 -1 13 -9 16 -9 3 -16 12 -16 20 0 8 -9 19 -20 26 -11 7 -20 17
-20 23 0 6 -9 17 -19 25 -11 7 -18 17 -15 22 3 4 -2 8 -11 8 -9 0 -13 5 -10
10 3 6 2 10 -4 10 -5 0 -31 18 -58 40 -73 61 -73 61 -73 53 0 -4 -6 -1 -13 8
-7 9 -29 22 -49 29 -20 8 -35 17 -33 21 3 3 -7 7 -21 7 -15 0 -29 3 -33 8 -3
5 -22 9 -41 9 -19 0 -38 3 -41 8 -3 4 -7 5 -10 3z"/>
<path d="M1920 1919 c-8 -5 -27 -9 -42 -9 -16 0 -28 -4 -28 -9 0 -5 -8 -8 -17
-6 -10 1 -22 0 -28 -4 -11 -6 -32 -12 -52 -13 -7 -1 -13 -6 -13 -11 0 -6 -3
-7 -7 -4 -3 4 -13 1 -21 -6 -13 -10 -14 -9 -7 3 6 11 3 10 -12 -3 -11 -9 -23
-14 -26 -10 -4 3 -7 1 -7 -6 0 -7 -4 -9 -10 -6 -5 3 -10 1 -10 -5 0 -6 -4 -9
-9 -5 -5 3 -17 -2 -25 -11 -9 -8 -16 -12 -16 -8 0 3 -7 1 -15 -6 -8 -7 -15 -9
-15 -6 0 4 -12 -4 -27 -18 -15 -14 -30 -23 -35 -20 -4 3 -8 0 -8 -5 0 -6 -7
-11 -15 -11 -8 0 -15 -5 -15 -12 0 -6 -3 -9 -6 -5 -6 6 -39 -19 -86 -65 -15
-16 -30 -28 -34 -28 -9 0 -64 -63 -64 -73 0 -5 -4 -5 -10 -2 -5 3 -10 3 -10
-2 0 -4 -13 -23 -29 -42 -17 -19 -28 -38 -25 -43 3 -4 -2 -8 -11 -8 -9 0 -14
-4 -10 -9 3 -5 -4 -16 -15 -24 -11 -7 -17 -17 -13 -20 3 -4 1 -7 -5 -7 -7 0
-12 -7 -12 -15 0 -9 -7 -18 -15 -21 -8 -4 -12 -10 -9 -16 3 -5 -3 -16 -15 -24
-12 -9 -19 -20 -16 -25 4 -5 1 -9 -4 -9 -6 0 -11 -7 -11 -15 0 -8 -4 -15 -10
-15 -5 0 -10 -7 -10 -15 0 -8 -5 -15 -11 -15 -5 0 -8 -4 -5 -9 3 -4 -3 -19
-14 -31 -18 -21 -24 -35 -17 -43 1 -1 -8 -13 -20 -26 -12 -13 -20 -27 -18 -31
3 -4 -2 -13 -10 -20 -8 -7 -12 -16 -9 -21 3 -5 0 -9 -6 -9 -6 0 -9 -4 -6 -9 3
-4 -1 -17 -9 -27 -8 -10 -15 -27 -15 -36 0 -10 -5 -18 -11 -18 -5 0 -8 -4 -4
-9 3 -5 1 -12 -4 -16 -5 -3 -8 -14 -6 -25 2 -11 -1 -19 -8 -17 -7 1 -11 -6 -9
-15 2 -10 -1 -18 -5 -18 -5 0 -10 -12 -11 -27 -1 -16 -7 -30 -12 -31 -6 -2 -7
-8 -4 -13 3 -6 0 -16 -6 -24 -7 -8 -9 -15 -5 -15 4 0 2 -6 -4 -13 -6 -8 -8
-17 -4 -20 3 -4 1 -12 -5 -19 -6 -7 -13 -33 -17 -58 -4 -25 -12 -48 -18 -52
-9 -6 -9 -8 0 -8 10 0 10 -6 1 -27 -12 -30 -19 -173 -9 -173 4 0 8 -8 9 -18 2
-18 9 -53 12 -62 1 -3 2 -8 1 -12 0 -5 3 -8 9 -8 6 0 9 -3 8 -7 -3 -11 35 -73
44 -73 4 0 8 -5 8 -11 0 -14 56 -69 70 -69 5 0 10 -5 10 -10 0 -6 11 -15 25
-20 14 -5 25 -14 25 -19 0 -5 8 -8 18 -7 9 2 27 -3 38 -11 21 -14 214 -25 214
-13 0 3 15 6 33 5 17 0 34 3 38 7 3 4 18 9 35 12 16 2 43 9 59 16 17 6 38 13
49 16 10 2 25 9 34 16 12 10 14 10 8 1 -5 -9 -2 -11 8 -7 9 3 16 10 16 16 0 5
3 7 8 5 4 -3 25 3 46 14 21 10 42 16 46 14 4 -3 11 2 14 11 3 8 10 12 16 9 5
-3 16 -3 23 2 12 8 32 13 55 15 6 1 12 6 12 11 0 6 3 7 6 4 4 -3 16 -1 28 5
11 7 26 13 31 14 17 4 64 14 93 20 15 4 36 8 47 9 11 2 20 4 20 5 0 1 21 3 47
5 25 1 51 6 57 9 5 4 12 2 16 -4 4 -6 13 -7 23 -2 9 4 33 6 52 4 19 -1 50 -4
68 -5 17 -1 32 -5 32 -10 0 -4 4 -6 9 -3 5 3 29 0 54 -8 25 -8 48 -11 51 -8 4
3 6 1 6 -5 0 -5 7 -10 15 -11 8 -1 22 -3 30 -4 8 -1 15 -4 15 -8 0 -4 6 -7 13
-7 17 -1 81 -27 87 -35 3 -4 15 -9 25 -11 11 -2 30 -9 43 -15 12 -7 22 -9 22
-5 0 4 4 4 8 -2 10 -14 56 -39 48 -26 -4 6 12 0 36 -12 24 -12 45 -25 46 -30
2 -4 7 -5 12 -2 5 3 21 0 37 -6 49 -21 75 -24 181 -23 118 2 133 3 150 17 6 5
12 6 12 3 0 -4 7 0 16 8 8 9 19 14 24 11 4 -2 19 7 34 22 14 14 26 22 26 19 0
-13 79 79 80 92 0 7 6 15 13 18 11 4 17 26 20 77 1 9 5 17 10 17 5 0 6 9 2 19
-3 11 -1 22 5 26 6 3 7 11 3 18 -6 11 -14 84 -13 139 0 15 -4 29 -10 33 -5 3
-10 19 -10 35 0 16 -4 32 -10 35 -5 3 -10 13 -10 22 0 8 -6 29 -14 46 -8 18
-24 58 -37 90 -12 31 -26 57 -31 57 -4 0 -8 9 -8 19 0 11 -7 26 -15 35 -9 8
-15 19 -15 23 2 12 -43 83 -52 83 -5 0 -8 7 -8 15 0 9 -9 25 -20 37 -11 12
-20 28 -20 35 0 7 -4 13 -10 13 -5 0 -10 9 -10 19 0 10 -6 21 -14 24 -8 3 -22
22 -31 41 -10 20 -22 36 -27 36 -5 0 -6 5 -3 10 3 5 1 10 -6 10 -7 0 -10 3 -6
6 3 3 -3 14 -14 25 -10 10 -19 26 -19 35 0 8 -4 12 -10 9 -5 -3 -10 -1 -10 5
0 11 -10 26 -47 66 -12 13 -20 24 -18 24 3 0 -3 8 -12 19 -10 10 -40 44 -68
76 -79 91 -143 155 -155 155 -6 0 -9 4 -6 8 3 5 -6 15 -19 22 -14 7 -25 17
-25 22 0 4 -6 8 -13 8 -7 0 -19 9 -27 20 -8 11 -20 20 -27 20 -7 0 -13 5 -13
10 0 6 -7 10 -15 10 -8 0 -15 4 -15 8 0 14 -220 119 -237 114 -2 0 -24 5 -50
12 -27 7 -56 12 -66 10 -9 -1 -17 2 -17 7 0 6 -6 7 -17 0 -10 -5 -26 -5 -40 0
-13 5 -25 4 -28 -2 -4 -5 -12 -6 -18 -2 -17 10 -37 13 -37 4 0 -8 -42 -7 -56
2 -5 3 -16 2 -24 -4z"/>
</g>
</svg>
